<mxfile host="app.diagrams.net" modified="2023-10-31T15:45:18.199Z" agent="Mozilla/5.0 (X11; Linux x86_64; rv:109.0) Gecko/20100101 Firefox/114.0" version="22.0.8" etag="5xDkLF4UPOQ9lEhn3I39" type="github">
  <diagram name="PÃ¡gina-1" id="oDNvH3c3WQss-E9SepFD">
    <mxGraphModel>
      <root>
        <mxCell id="0" />
        <mxCell id="1" parent="0" />
      </root>
    </mxGraphModel>
  </diagram>
</mxfile>
